<svg
    xmlns="http://www.w3.org/2000/svg"
    width="174"
    zoomAndPan="magnify"
    viewBox="0 0 130.5 36.000001"
    height="48"
    preserveAspectRatio="xMidYMid meet"
    version="1.0"
  >
    <defs>
      <g />
      <clipPath id="78d15cd0a4">
        <path
          d="M 1.519531 0 L 128.492188 0 L 128.492188 35.027344 L 1.519531 35.027344 Z M 1.519531 0 "
          clipRule="nonzero"
        />
      </clipPath>
      <clipPath id="f0f5d3e793">
        <path
          d="M 1.519531 8.847656 L 24.871094 8.847656 L 24.871094 27.8125 L 1.519531 27.8125 Z M 1.519531 8.847656 "
          clipRule="nonzero"
        />
      </clipPath>
    </defs>
    <g clipPath="url(#78d15cd0a4)"></g>
    <g clipPath="url(#f0f5d3e793)">
      <path
        fill="black"
        d="M 25.125 8.84375 L 13.320312 8.84375 C 8.078125 8.84375 3.816406 13.109375 3.816406 18.351562 C 3.816406 19.144531 3.914062 19.910156 4.097656 20.648438 L 1.519531 20.648438 L 1.519531 21.957031 L 4.527344 21.957031 C 4.765625 22.535156 5.058594 23.082031 5.398438 23.597656 L 1.519531 23.597656 L 1.519531 24.910156 L 6.449219 24.910156 C 7.054688 25.546875 7.75 26.097656 8.511719 26.546875 L 1.519531 26.546875 L 1.519531 27.859375 L 13.320312 27.859375 C 18.5625 27.859375 22.828125 23.59375 22.828125 18.351562 C 22.828125 17.5625 22.730469 16.792969 22.546875 16.058594 L 25.125 16.058594 L 25.125 14.746094 L 22.117188 14.746094 C 21.878906 14.167969 21.585938 13.621094 21.246094 13.105469 L 25.125 13.105469 L 25.125 11.796875 L 20.195312 11.796875 C 19.589844 11.160156 18.894531 10.605469 18.132812 10.15625 L 25.125 10.15625 Z M 18.234375 11.796875 L 13.320312 11.796875 L 13.320312 13.105469 L 19.613281 13.105469 C 20.03125 13.605469 20.390625 14.15625 20.679688 14.746094 L 13.320312 14.746094 L 13.320312 16.058594 L 21.1875 16.058594 C 21.402344 16.785156 21.515625 17.554688 21.515625 18.351562 C 21.515625 22.871094 17.839844 26.546875 13.320312 26.546875 C 11.480469 26.546875 9.78125 25.9375 8.410156 24.910156 L 13.320312 24.910156 L 13.320312 23.597656 L 7.03125 23.597656 C 6.613281 23.097656 6.253906 22.546875 5.964844 21.957031 L 13.320312 21.957031 L 13.320312 20.648438 L 5.457031 20.648438 C 5.242188 19.917969 5.125 19.148438 5.125 18.351562 C 5.125 13.832031 8.804688 10.15625 13.320312 10.15625 C 15.164062 10.15625 16.863281 10.765625 18.234375 11.796875 Z M 18.234375 11.796875 "
        fillOpacity="1"
        fillRule="nonzero"
      />
    </g>
    <g fill="black" fillOpacity="1">
      <g transform="translate(29.711504, 22.454793)">
        <g>
          <path d="M 9.71875 -11.0625 L 4.484375 -11.0625 L 4.484375 -8.1875 L 8.96875 -8.1875 L 8.96875 -5.53125 L 4.484375 -5.53125 L 4.484375 0 L 1.46875 0 L 1.46875 -13.71875 L 9.71875 -13.71875 Z M 9.71875 -11.0625 " />
        </g>
      </g>
    </g>
    <g fill="black" fillOpacity="1">
      <g transform="translate(39.295647, 22.454793)">
        <g>
          <path d="M 4.375 -2.671875 L 8.921875 -2.671875 L 8.921875 0 L 1.34375 0 L 1.34375 -13.71875 L 4.375 -13.71875 Z M 4.375 -2.671875 " />
        </g>
      </g>
    </g>
    <g fill="black" fillOpacity="1">
      <g transform="translate(47.896211, 22.454793)">
        <g>
          <path d="M 9.75 0 L 8.890625 -2.578125 L 3.78125 -2.578125 L 2.921875 0 L -0.296875 0 L 4.640625 -13.71875 L 8.03125 -13.71875 L 12.96875 0 Z M 4.578125 -5.09375 L 8.09375 -5.09375 L 6.328125 -10.546875 Z M 4.578125 -5.09375 " />
        </g>
      </g>
    </g>
    <g fill="black" fillOpacity="1">
      <g transform="translate(60.20236, 22.454793)">
        <g>
          <path d="M 7.890625 -7.53125 L 14.953125 -7.53125 L 14.953125 -6.859375 C 14.953125 -5.878906 14.769531 -4.96875 14.40625 -4.125 C 14.039062 -3.28125 13.535156 -2.535156 12.890625 -1.890625 C 12.242188 -1.242188 11.492188 -0.734375 10.640625 -0.359375 C 9.796875 0.00390625 8.882812 0.1875 7.90625 0.1875 C 6.9375 0.1875 6.023438 0.00390625 5.171875 -0.359375 C 4.316406 -0.734375 3.566406 -1.242188 2.921875 -1.890625 C 2.285156 -2.535156 1.785156 -3.28125 1.421875 -4.125 C 1.054688 -4.96875 0.875 -5.878906 0.875 -6.859375 C 0.875 -7.835938 1.054688 -8.75 1.421875 -9.59375 C 1.785156 -10.4375 2.285156 -11.179688 2.921875 -11.828125 C 3.566406 -12.484375 4.316406 -12.992188 5.171875 -13.359375 C 6.023438 -13.722656 6.9375 -13.90625 7.90625 -13.90625 C 9.269531 -13.90625 10.503906 -13.554688 11.609375 -12.859375 C 12.710938 -12.171875 13.5625 -11.257812 14.15625 -10.125 L 11.546875 -8.78125 C 11.210938 -9.4375 10.722656 -9.960938 10.078125 -10.359375 C 9.441406 -10.753906 8.71875 -10.953125 7.90625 -10.953125 C 7.144531 -10.953125 6.453125 -10.769531 5.828125 -10.40625 C 5.203125 -10.050781 4.707031 -9.566406 4.34375 -8.953125 C 3.988281 -8.335938 3.8125 -7.640625 3.8125 -6.859375 C 3.8125 -6.078125 3.988281 -5.378906 4.34375 -4.765625 C 4.707031 -4.148438 5.203125 -3.660156 5.828125 -3.296875 C 6.453125 -2.941406 7.144531 -2.765625 7.90625 -2.765625 C 8.757812 -2.765625 9.519531 -2.984375 10.1875 -3.421875 C 10.851562 -3.867188 11.347656 -4.453125 11.671875 -5.171875 L 7.890625 -5.171875 Z M 7.890625 -7.53125 " />
        </g>
      </g>
    </g>
    <g fill="black" fillOpacity="1">
      <g transform="translate(75.665116, 22.454793)">
        <g>
          <path d="M 7.1875 -13.71875 C 7.957031 -13.71875 8.648438 -13.53125 9.265625 -13.15625 C 9.890625 -12.789062 10.378906 -12.289062 10.734375 -11.65625 C 11.097656 -11.03125 11.28125 -10.335938 11.28125 -9.578125 C 11.28125 -8.816406 11.097656 -8.128906 10.734375 -7.515625 C 10.378906 -6.910156 9.890625 -6.429688 9.265625 -6.078125 C 8.648438 -5.734375 7.957031 -5.5625 7.1875 -5.5625 L 4.375 -5.5625 L 4.375 0 L 1.34375 0 L 1.34375 -13.71875 Z M 6.703125 -8.046875 C 7.191406 -8.046875 7.59375 -8.179688 7.90625 -8.453125 C 8.226562 -8.734375 8.390625 -9.101562 8.390625 -9.5625 C 8.390625 -10 8.226562 -10.359375 7.90625 -10.640625 C 7.59375 -10.921875 7.191406 -11.0625 6.703125 -11.0625 L 4.375 -11.0625 L 4.375 -8.046875 Z M 6.703125 -8.046875 " />
        </g>
      </g>
    </g>
    <g fill="black" fillOpacity="1">
      <g transform="translate(86.667446, 22.454793)">
        <g>
          <path d="M 7.890625 0.1875 C 6.910156 0.1875 6 0.00390625 5.15625 -0.359375 C 4.3125 -0.734375 3.5625 -1.242188 2.90625 -1.890625 C 2.257812 -2.535156 1.753906 -3.28125 1.390625 -4.125 C 1.023438 -4.96875 0.84375 -5.878906 0.84375 -6.859375 C 0.84375 -7.835938 1.023438 -8.75 1.390625 -9.59375 C 1.753906 -10.4375 2.257812 -11.179688 2.90625 -11.828125 C 3.5625 -12.484375 4.3125 -12.992188 5.15625 -13.359375 C 6 -13.722656 6.910156 -13.90625 7.890625 -13.90625 C 8.867188 -13.90625 9.785156 -13.722656 10.640625 -13.359375 C 11.492188 -12.992188 12.238281 -12.484375 12.875 -11.828125 C 13.519531 -11.179688 14.023438 -10.4375 14.390625 -9.59375 C 14.753906 -8.75 14.9375 -7.835938 14.9375 -6.859375 C 14.9375 -5.878906 14.753906 -4.96875 14.390625 -4.125 C 14.023438 -3.28125 13.519531 -2.535156 12.875 -1.890625 C 12.238281 -1.242188 11.492188 -0.734375 10.640625 -0.359375 C 9.785156 0.00390625 8.867188 0.1875 7.890625 0.1875 Z M 7.890625 -2.765625 C 8.671875 -2.765625 9.367188 -2.941406 9.984375 -3.296875 C 10.597656 -3.660156 11.082031 -4.148438 11.4375 -4.765625 C 11.800781 -5.378906 11.984375 -6.078125 11.984375 -6.859375 C 11.984375 -7.640625 11.800781 -8.335938 11.4375 -8.953125 C 11.082031 -9.566406 10.597656 -10.050781 9.984375 -10.40625 C 9.367188 -10.769531 8.671875 -10.953125 7.890625 -10.953125 C 7.128906 -10.953125 6.4375 -10.769531 5.8125 -10.40625 C 5.195312 -10.050781 4.707031 -9.566406 4.34375 -8.953125 C 3.988281 -8.335938 3.8125 -7.640625 3.8125 -6.859375 C 3.8125 -6.078125 3.988281 -5.378906 4.34375 -4.765625 C 4.707031 -4.148438 5.195312 -3.660156 5.8125 -3.296875 C 6.4375 -2.941406 7.128906 -2.765625 7.890625 -2.765625 Z M 7.890625 -2.765625 " />
        </g>
      </g>
    </g>
    <g fill="black" fillOpacity="1">
      <g transform="translate(102.10733, 22.454793)">
        <g>
          <path d="M 4.375 -2.671875 L 8.921875 -2.671875 L 8.921875 0 L 1.34375 0 L 1.34375 -13.71875 L 4.375 -13.71875 Z M 4.375 -2.671875 " />
        </g>
      </g>
    </g>
    <g fill="black" fillOpacity="1">
      <g transform="translate(110.707891, 22.454793)">
        <g>
          <path d="M 9.71875 -11.0625 L 4.484375 -11.0625 L 4.484375 -8.1875 L 8.96875 -8.1875 L 8.96875 -5.53125 L 4.484375 -5.53125 L 4.484375 -2.65625 L 9.71875 -2.65625 L 9.71875 0 L 1.46875 0 L 1.46875 -13.71875 L 9.71875 -13.71875 Z M 9.71875 -11.0625 " />
        </g>
      </g>
    </g>
  </svg>